<svg width="100" height="100" viewBox="0 0 100 100" fill="none" xmlns="http://www.w3.org/2000/svg">
<rect width="100" height="100" rx="10" fill="#065302"/>
<path d="M15.5 67.5L38 56.5L47.5 76.5L55.5 24L63.5 44L83.5 34.5" stroke="white" stroke-width="3"/>
<line x1="83.6549" y1="34.3495" x2="15.6549" y2="67.3495" stroke="white" stroke-width="3" stroke-dasharray="2 2"/>
<circle cx="75.6535" cy="68.6534" r="13.5794" transform="rotate(0.313044 75.6535 68.6534)" fill="#D9D9D9"/>
<path d="M75.4588 76.6364V60.2727H76.5071V76.6364H75.4588ZM78.2393 65.674C78.1882 65.1584 77.9688 64.7578 77.581 64.4723C77.1932 64.1868 76.6669 64.044 76.0021 64.044C75.5504 64.044 75.169 64.108 74.858 64.2358C74.5469 64.3594 74.3082 64.532 74.142 64.7536C73.9801 64.9751 73.8991 65.2266 73.8991 65.5078C73.8906 65.7422 73.9396 65.9467 74.0462 66.1214C74.157 66.2962 74.3082 66.4474 74.5 66.5753C74.6918 66.6989 74.9134 66.8075 75.1648 66.9013C75.4162 66.9908 75.6847 67.0675 75.9702 67.1314L77.1463 67.4126C77.7173 67.5405 78.2415 67.7109 78.7188 67.924C79.196 68.1371 79.6094 68.3991 79.9588 68.7102C80.3082 69.0213 80.5788 69.3878 80.7706 69.8097C80.9666 70.2315 81.0668 70.7152 81.071 71.2607C81.0668 72.0618 80.8622 72.7564 80.4574 73.3445C80.0568 73.9283 79.4773 74.3821 78.7188 74.706C77.9645 75.0256 77.0547 75.1854 75.9893 75.1854C74.9325 75.1854 74.0121 75.0234 73.228 74.6996C72.4482 74.3757 71.8388 73.8963 71.3999 73.2614C70.9652 72.6222 70.7372 71.8317 70.7159 70.8899H73.3942C73.424 71.3288 73.5497 71.6953 73.7713 71.9893C73.9972 72.2791 74.2976 72.4986 74.6726 72.6477C75.0518 72.7926 75.4801 72.8651 75.9574 72.8651C76.4261 72.8651 76.8331 72.7969 77.1783 72.6605C77.5277 72.5241 77.7983 72.3345 77.9901 72.0916C78.1818 71.8487 78.2777 71.5696 78.2777 71.2543C78.2777 70.9602 78.1903 70.7131 78.0156 70.5128C77.8452 70.3125 77.5938 70.142 77.2614 70.0014C76.9332 69.8608 76.5305 69.733 76.0533 69.6179L74.6278 69.2599C73.5241 68.9915 72.6527 68.5717 72.0135 68.0007C71.3743 67.4297 71.0568 66.6605 71.0611 65.6932C71.0568 64.9006 71.2678 64.2081 71.6939 63.6158C72.1243 63.0234 72.7145 62.5611 73.4645 62.2287C74.2145 61.8963 75.0668 61.7301 76.0213 61.7301C76.9929 61.7301 77.8409 61.8963 78.5653 62.2287C79.294 62.5611 79.8608 63.0234 80.2656 63.6158C80.6705 64.2081 80.8793 64.8942 80.892 65.674H78.2393Z" fill="#065302"/>
</svg>
